<svg xmlns="http://www.w3.org/2000/svg" width="420" height="840" viewBox="0 0 420 840" role="img" aria-label="自定义筛选页面示意图">
  <rect width="420" height="840" rx="36" fill="#164e63"/>
  <rect x="18" y="20" width="384" height="800" rx="28" fill="#f8fafc"/>
  <text x="42" y="74" font-family="Microsoft YaHei, Noto Sans SC, Arial, sans-serif" font-size="24" font-weight="700" fill="#111827">自定义筛选</text>
  <g font-family="Microsoft YaHei, Noto Sans SC, Arial, sans-serif">
    <rect x="42" y="104" width="336" height="78" rx="14" fill="#ffffff" stroke="#e2e8f0"/>
    <text x="60" y="132" font-size="15" font-weight="700" fill="#111827">筛选方案</text>
    <text x="60" y="160" font-size="14" fill="#475569">默认方案 · 我的方案 1 · 我的方案 2</text>
    <rect x="42" y="202" width="336" height="68" rx="14" fill="#ecfdf5" stroke="#bbf7d0"/>
    <text x="60" y="232" font-size="15" font-weight="700" fill="#166534">组合方式：全部满足（且）</text>
    <text x="60" y="254" font-size="13" fill="#166534">必须条件硬过滤，加分项影响排序</text>
    <rect x="42" y="294" width="336" height="78" rx="14" fill="#ffffff" stroke="#e2e8f0"/>
    <text x="60" y="323" font-size="16" font-weight="700" fill="#111827">趋势类</text>
    <text x="60" y="350" font-size="13" fill="#64748b">站上 MA250 · MA250 走平或向上</text>
    <rect x="328" y="315" width="30" height="18" rx="9" fill="#22c55e"/>
    <circle cx="349" cy="324" r="7" fill="#ffffff"/>
    <rect x="42" y="394" width="336" height="78" rx="14" fill="#ffffff" stroke="#e2e8f0"/>
    <text x="60" y="423" font-size="16" font-weight="700" fill="#111827">成交额类</text>
    <text x="60" y="450" font-size="13" fill="#64748b">最低成交额 5000 万 · 放量倍数 1.2x</text>
    <rect x="42" y="494" width="336" height="78" rx="14" fill="#ffffff" stroke="#e2e8f0"/>
    <text x="60" y="523" font-size="16" font-weight="700" fill="#111827">K线形态类</text>
    <text x="60" y="550" font-size="13" fill="#64748b">阳包阴 · 前阴后阳 · 收盘靠近最高价</text>
    <rect x="42" y="594" width="336" height="78" rx="14" fill="#ffffff" stroke="#e2e8f0"/>
    <text x="60" y="623" font-size="16" font-weight="700" fill="#111827">波动率类</text>
    <text x="60" y="650" font-size="13" fill="#64748b">振幅收窄 · 低波动后突破</text>
    <rect x="42" y="704" width="336" height="52" rx="26" fill="#0f766e"/>
    <text x="210" y="737" text-anchor="middle" font-size="17" font-weight="700" fill="#ffffff">开始筛选</text>
  </g>
</svg>
