<svg xmlns="http://www.w3.org/2000/svg" width="420" height="840" viewBox="0 0 420 840" role="img" aria-label="今日信号页面示意图">
  <rect width="420" height="840" rx="36" fill="#0f172a"/>
  <rect x="18" y="20" width="384" height="800" rx="28" fill="#f8fafc"/>
  <text x="42" y="74" font-family="Microsoft YaHei, Noto Sans SC, Arial, sans-serif" font-size="24" font-weight="700" fill="#111827">今日信号</text>
  <rect x="286" y="48" width="78" height="34" rx="17" fill="#16a34a"/>
  <text x="325" y="70" text-anchor="middle" font-family="Microsoft YaHei, Noto Sans SC, Arial, sans-serif" font-size="14" font-weight="700" fill="#ffffff">刷新</text>
  <rect x="42" y="104" width="336" height="54" rx="12" fill="#ecfeff" stroke="#a5f3fc"/>
  <text x="58" y="127" font-family="Microsoft YaHei, Noto Sans SC, Arial, sans-serif" font-size="14" fill="#155e75">智能更新完成：缓存为最新收盘数据</text>
  <text x="58" y="149" font-family="Microsoft YaHei, Noto Sans SC, Arial, sans-serif" font-size="13" fill="#155e75">当前选择：低位启动，显示 18 只</text>
  <g font-family="Microsoft YaHei, Noto Sans SC, Arial, sans-serif">
    <rect x="42" y="178" width="336" height="42" rx="21" fill="#ffffff" stroke="#cbd5e1"/>
    <text x="72" y="204" font-size="14" fill="#0f172a">年线首板</text>
    <text x="160" y="204" font-size="14" fill="#0f172a">九阳蓄势</text>
    <text x="248" y="204" font-size="14" fill="#0f172a">低位启动</text>
    <rect x="42" y="244" width="336" height="118" rx="14" fill="#ffffff" stroke="#e2e8f0"/>
    <text x="58" y="273" font-size="18" font-weight="700" fill="#111827">1. 示例股份 600000.SH</text>
    <rect x="286" y="253" width="36" height="24" rx="6" fill="#dc2626"/>
    <text x="304" y="271" text-anchor="middle" font-size="14" font-weight="700" fill="#ffffff">新</text>
    <text x="58" y="302" font-size="14" fill="#475569">低位启动 · 强 · 92 分</text>
    <text x="58" y="329" font-size="13" fill="#64748b">距120日低点 18.20% · 量能 1.42x</text>
    <rect x="42" y="382" width="336" height="118" rx="14" fill="#ffffff" stroke="#e2e8f0"/>
    <text x="58" y="411" font-size="18" font-weight="700" fill="#111827">2. 示例科技 300000.SZ</text>
    <text x="58" y="440" font-size="14" fill="#475569">九阳蓄势 + 博弈K · 89 分</text>
    <text x="58" y="467" font-size="13" fill="#64748b">多策略命中自动合并显示</text>
    <rect x="42" y="520" width="336" height="118" rx="14" fill="#ffffff" stroke="#e2e8f0"/>
    <text x="58" y="549" font-size="18" font-weight="700" fill="#111827">3. 示例能源 601000.SH</text>
    <text x="58" y="578" font-size="14" fill="#475569">年线首板 · 普通 · 84 分</text>
    <text x="58" y="605" font-size="13" fill="#64748b">近涨停 · 非一字板 · 靠近 MA250</text>
  </g>
</svg>
